<?xml version="1.0" standalone="no"?>
<!DOCTYPE svg PUBLIC "-//W3C//DTD SVG 20010904//EN"
 "http://www.w3.org/TR/2001/REC-SVG-20010904/DTD/svg10.dtd">
<svg version="1.0" xmlns="http://www.w3.org/2000/svg"
 width="512.000000pt" height="512.000000pt" viewBox="0 0 512.000000 512.000000"
 preserveAspectRatio="xMidYMid meet">
<metadata>
Created by potrace 1.14, written by Peter Selinger 2001-2017
</metadata>
<g transform="translate(0.000000,512.000000) scale(0.100000,-0.100000)"
fill="#000000" stroke="none">
<path d="M395 5103 c-103 -22 -188 -65 -248 -125 -68 -69 -105 -141 -128 -253
-18 -86 -19 -179 -18 -2170 0 -1223 4 -2099 9 -2125 17 -84 19 -91 32 -128 7
-20 15 -39 18 -42 3 -3 12 -18 20 -34 51 -98 157 -170 317 -213 45 -12 4239
-14 4298 -2 28 6 61 13 75 15 105 21 242 131 288 232 61 134 56 -46 58 2277 3
2324 6 2190 -56 2321 -56 116 -151 195 -288 238 l-67 21 -2120 2 c-1853 1
-2129 0 -2190 -14z"/>
</g>
</svg>
